<?xml version="1.0" encoding="utf-8"?>
<!-- Generator: Adobe Illustrator 22.0.0, SVG Export Plug-In . SVG Version: 6.00 Build 0)  -->
<svg version="1.1" id="Layer_1" xmlns="http://www.w3.org/2000/svg" xmlns:xlink="http://www.w3.org/1999/xlink" x="0px" y="0px"
	 viewBox="0 0 256 256" style="enable-background:new 0 0 256 256;" xml:space="preserve">
<style type="text/css">
	.st0{fill:#8390A3;}
	.st1{fill:#575656;}
	.st2{fill:#136DA0;}
	.st3{fill:#009FE8;}
	.st4{fill:#009ADD;}
	.st5{fill:#FFFFFF;}
	.st6{fill:#D1D3D4;}
	.st7{fill:#E7D7F7;}
	.st8{fill:#CAABEF;}
	.st9{fill:#E6E7E8;}
</style>
<g>
	<g>
		<circle class="st0" cx="128" cy="128" r="119.4"/>
	</g>
	<path class="st1" d="M184.3,72.2H71.7c-4,0-7.3,3.3-7.3,7.3v7v78.8v7c0,4,3.3,7.3,7.3,7.3h14v18.3v9c0,4.3,5.2,6.5,8.3,3.4
		l30.8-30.8h59.6c4,0,7.3-3.3,7.3-7.3v-7V86.5v-7C191.6,75.5,188.3,72.2,184.3,72.2z"/>
	<g>
		<g>
			<path class="st2" d="M184.3,72.2H71.7c-4,0-7.3,3.3-7.3,7.3v85.8c0,4,3.3,7.3,7.3,7.3h14v27.3c0,4.3,5.2,6.5,8.3,3.4l30.8-30.8
				h59.6c4,0,7.3-3.3,7.3-7.3V79.5C191.6,75.5,188.3,72.2,184.3,72.2z"/>
			<path class="st3" d="M184.3,65.2H71.7c-4,0-7.3,3.3-7.3,7.3v85.8c0,4,3.3,7.3,7.3,7.3h14v25.3c0,4.3,5.2,6.5,8.3,3.4l28.8-28.8
				h61.6c4,0,7.3-3.3,7.3-7.3V72.5C191.6,68.5,188.3,65.2,184.3,65.2z"/>
		</g>
		<path class="st4" d="M173.3,123.1C173.3,123,173.3,123,173.3,123.1c0-0.3-0.1-0.5-0.1-0.7c0,0,0,0,0,0l0,0
			c-0.6-2.4-2.8-4.2-5.4-4.2h-3.6c1.7,0,3.3-0.8,4.3-2c0.3-0.4,0.6-0.9,0.8-1.4c0.3-0.7,0.4-1.4,0.4-2.2l0,0l0,0c0-0.2,0-0.5,0-0.7
			c0,0,0,0,0-0.1c0-0.2-0.1-0.4-0.1-0.6c0,0,0,0,0,0v0c-0.6-2.4-2.8-4.2-5.4-4.2h-5.6h-8.2h-4.1l10.2-12.3c0.4-0.5,0.8-1,1.1-1.5
			c2.3-4,1.9-9.2-1.3-12.7l-0.3-0.3l-0.2-0.3c-0.2-0.2-0.3-0.3-0.5-0.5c0,0,0,0,0,0c-0.2-0.1-0.4-0.2-0.6-0.3c0,0,0,0,0,0
			c0,0,0,0,0,0c-0.9-0.3-2-0.1-2.8,0.6c-6.5,8-14.1,15.2-22.4,21.4l-7.9,5.9h-1h-10h-4.9v-1.2c0-1.5-1.3-2.8-2.8-2.8H100h-4.9h-9.6
			c-1.5,0-2.8,1.3-2.8,2.8v29.2v7c0,0.4,0.1,0.8,0.2,1.1c0.4,1,1.4,1.7,2.6,1.7h9.6h4.9h2.8c0.6,0,1.1-0.2,1.6-0.5
			c0.3-0.2,0.6-0.5,0.8-0.8c0.1-0.1,0.2-0.3,0.3-0.5c0.1-0.3,0.2-0.7,0.2-1.1v-1.8h4.9h1.7c0.2,0,0.4,0,0.6,0c1.3,0.2,2.4,0.9,3.1,2
			c0.1,0.2,0.2,0.4,0.3,0.6c2.6,5.3,7.9,8.6,13.8,8.6h23.1h0h4.9l0,0h0.5v0c0.6-0.1,1.1-0.2,1.7-0.4c1.3-0.6,2.4-1.6,3-3
			c0.3-0.7,0.4-1.4,0.4-2.2l0,0l0,0c0-0.2,0-0.5,0-0.7c0,0,0,0,0-0.1c-0.3-2.5-2.4-4.5-5-4.8v0h4.8l0,0c0.8,0,1.5-0.2,2.2-0.4
			c2-0.8,3.4-2.8,3.4-5.1c0-0.2,0-0.5,0-0.7c0,0,0,0,0-0.1c-0.4-2.7-2.7-4.8-5.5-4.8h4.4l0,0c1.5,0,2.9-0.6,3.9-1.6
			c0.5-0.5,0.9-1.1,1.2-1.8c0.1-0.3,0.2-0.7,0.3-1c0.1-0.4,0.1-0.7,0.1-1.1C173.3,123.5,173.3,123.3,173.3,123.1z"/>
		<g>
			<path class="st5" d="M156.6,88.8c3.5-4.2,3.3-10.2-0.3-14.3l-0.5-0.5c-1-1.1-2.8-1.2-4-0.2c-6.5,8-14.1,15.2-22.4,21.4l-7.9,5.9
				h-16v33.3h6.6c1.7,0,3.3,1,4.1,2.6c2.6,5.3,7.9,8.6,13.8,8.6h28.5v-44.4h-12.2L156.6,88.8z"/>
			<path class="st6" d="M158.6,101.1v44.4h-25.4c5-2,8.5-6.9,8.5-12.6c0-5.7-3.4-10.5-8.3-12.6c-0.9-0.4-0.9-1.8,0-2.1
				c4.5-1.9,7.8-6.2,8.3-11.3c0-0.4,0.1-0.9,0.1-1.3c0-1.5-0.2-2.9-0.7-4.2c0-0.1-0.1-0.2-0.1-0.3H158.6z"/>
			<path class="st6" d="M116.3,133.4L116.3,133.4c-0.8-1.6-2.4-2.6-4.1-2.6h-6.6v3.5h6.6c1.7,0,3.3,1,4.1,2.6l0,0
				c2.6,5.3,7.9,8.6,13.8,8.6h28.5V142h-28.5C124.2,142,118.9,138.7,116.3,133.4z"/>
			<rect x="105.6" y="101.1" class="st6" width="4.9" height="33.3"/>
			<path class="st7" d="M85.4,138.9h17.3c1.5,0,2.8-1.3,2.8-2.8V99.9c0-1.5-1.3-2.8-2.8-2.8H85.4c-1.5,0-2.8,1.3-2.8,2.8v36.2
				C82.6,137.7,83.9,138.9,85.4,138.9z"/>
			<path class="st8" d="M102.8,131.9H85.4c-1.5,0-2.8-1.3-2.8-2.8v7c0,1.5,1.3,2.8,2.8,2.8h17.3c1.5,0,2.8-1.3,2.8-2.8v-7
				C105.6,130.7,104.3,131.9,102.8,131.9z"/>
			<path class="st5" d="M164.2,112.2h-13.8c-3.1,0-5.6-2.5-5.6-5.6l0,0c0-3.1,2.5-5.6,5.6-5.6h13.8c3.1,0,5.6,2.5,5.6,5.6l0,0
				C169.7,109.7,167.3,112.2,164.2,112.2z"/>
			<path class="st9" d="M164.2,109.4h-13.8c-2.6,0-4.7-1.8-5.4-4.2c-0.1,0.4-0.2,0.9-0.2,1.4c0,3.1,2.5,5.6,5.6,5.6h13.8
				c3.1,0,5.6-2.5,5.6-5.6c0-0.5-0.1-1-0.2-1.4C168.9,107.6,166.8,109.4,164.2,109.4z"/>
			<path class="st9" d="M156.6,88.8l-10.2,12.3l-4.8,5.8c0-0.4,0.1-0.9,0.1-1.3c0-1.5-0.2-2.9-0.7-4.2l0.2-0.3L153.8,86
				c3.1-3.7,3.3-8.8,0.8-12.8c0.4,0.2,0.8,0.4,1.2,0.8l0.5,0.5C159.9,78.5,160.1,84.6,156.6,88.8z"/>
			<path class="st5" d="M167.8,123.3h-18.7c-3.1,0-5.6-2.5-5.6-5.6l0,0c0-3.1,2.5-5.6,5.6-5.6h18.7c3.1,0,5.6,2.5,5.6,5.6l0,0
				C173.3,120.8,170.8,123.3,167.8,123.3z"/>
			<path class="st9" d="M167.8,120.5h-18.7c-2.6,0-4.7-1.8-5.4-4.2c-0.1,0.4-0.2,0.9-0.2,1.4c0,3.1,2.5,5.6,5.6,5.6h18.7
				c3.1,0,5.6-2.5,5.6-5.6c0-0.5-0.1-1-0.2-1.4C172.5,118.7,170.4,120.5,167.8,120.5z"/>
			<path class="st5" d="M163.4,134.4h-13c-3.1,0-5.6-2.5-5.6-5.6l0,0c0-3.1,2.5-5.6,5.6-5.6h13c3.1,0,5.6,2.5,5.6,5.6l0,0
				C169,131.9,166.5,134.4,163.4,134.4z"/>
			<path class="st9" d="M163.4,131.6h-13c-2.6,0-4.7-1.8-5.4-4.2c-0.1,0.4-0.2,0.9-0.2,1.4l0,0c0,3.1,2.5,5.6,5.6,5.6h13
				c3.1,0,5.6-2.5,5.6-5.6l0,0c0-0.5-0.1-1-0.2-1.4C168.1,129.8,166,131.6,163.4,131.6z"/>
			<path class="st5" d="M158.1,145.5h-4.9c-3.1,0-5.6-2.5-5.6-5.6v0c0-3.1,2.5-5.6,5.6-5.6h4.9c3.1,0,5.6,2.5,5.6,5.6v0
				C163.6,143,161.1,145.5,158.1,145.5z"/>
			<path class="st9" d="M158.1,142.7h-4.9c-2.6,0-4.7-1.8-5.4-4.2c-0.1,0.4-0.2,0.9-0.2,1.4c0,3.1,2.5,5.6,5.6,5.6h4.9
				c3.1,0,5.6-2.5,5.6-5.6c0-0.5-0.1-1-0.2-1.4C162.8,140.9,160.6,142.7,158.1,142.7z"/>
			<rect x="95.1" y="97.1" class="st8" width="4.9" height="41.8"/>
		</g>
	</g>
</g>
</svg>
