<?xml version="1.0" encoding="utf-8"?>
<!-- Generator: Adobe Illustrator 22.0.0, SVG Export Plug-In . SVG Version: 6.00 Build 0)  -->
<svg version="1.1" id="Capa_1" xmlns="http://www.w3.org/2000/svg" xmlns:xlink="http://www.w3.org/1999/xlink" x="0px" y="0px"
	 viewBox="0 0 512 512" style="enable-background:new 0 0 512 512;" xml:space="preserve">
<style type="text/css">
	.st0{fill:#8390A3;}
	.st1{fill:#575656;}
	.st2{fill:#D1D3D4;}
	.st3{fill:#FFFFFF;}
	.st4{fill:#009FE8;}
	.st5{fill:#0084C2;}
	.st6{fill:#E7D7F7;}
	.st7{fill:#CAABEF;}
	.st8{fill:#136DA0;}
</style>
<g>
	<circle class="st0" cx="256" cy="256" r="240"/>
	<path class="st1" d="M335,170.1H177c-8.4,0-15.1,6.8-15.1,15.1v169.6c0,8.4,6.8,15.1,15.1,15.1h50c7.6,6.9,16.2,12.7,25.8,17.2
		c0,0,0,0,0.1,0c0.3,0.2,0.7,0.3,1,0.4c0.7,0.2,1.4,0.4,2.1,0.4c0.7,0,1.5-0.1,2.1-0.4c0.3-0.1,0.6-0.3,1-0.4c0,0,0,0,0.1,0
		c9.5-4.5,18.2-10.3,25.8-17.2h50c8.4,0,15.1-6.8,15.1-15.1V185.2C350.1,176.9,343.3,170.1,335,170.1z"/>
	<path class="st2" d="M335,355.9H177c-8.4,0-15.1-6.8-15.1-15.1V179.4c0-8.4,6.8-15.1,15.1-15.1H335c8.4,0,15.1,6.8,15.1,15.1v161.3
		C350.1,349.1,343.3,355.9,335,355.9L335,355.9z"/>
	<path class="st3" d="M335,347.7H177c-8.4,0-15.1-6.8-15.1-15.1V171.2c0-8.4,6.8-15.1,15.1-15.1H335c8.4,0,15.1,6.8,15.1,15.1v161.3
		C350.1,340.9,343.3,347.7,335,347.7z"/>
	<path class="st4" d="M335,156.1H177c-8.4,0-15.1,6.8-15.1,15.1v27.1h188.2v-27.1C350.1,162.9,343.3,156.1,335,156.1z"/>
	<path class="st3" d="M192.8,174.2c0,3.4-2.8,6.2-6.2,6.2s-6.2-2.8-6.2-6.2s2.8-6.2,6.2-6.2C190.1,168,192.8,170.8,192.8,174.2z"/>
	<path class="st5" d="M161.9,189.6h188.2v8.7H161.9V189.6z"/>
	<path class="st6" d="M319.5,242.5V278c0,40.8-23.6,77.8-60.3,95.2c0,0,0,0-0.1,0c-0.3,0.2-0.6,0.3-1,0.4c-0.7,0.2-1.4,0.4-2.1,0.4
		s-1.5-0.1-2.1-0.4c-0.3-0.1-0.7-0.3-1-0.4c0,0,0,0-0.1,0c-36.7-17.3-60.3-54.4-60.3-95.2v-35.5c0-1.9,1.3-3.6,3.1-4.2l57.8-18.1
		c1.7-0.5,3.5-0.5,5.3,0l57.8,18.1C318.2,238.8,319.5,240.6,319.5,242.5L319.5,242.5z"/>
	<path class="st7" d="M311.4,249.4v31c0,35.5-20.4,67.7-52.2,82.9c0,0,0,0-0.1,0c-0.3,0.2-0.6,0.3-1,0.4c0,0,0,0-0.1,0
		c-0.6,0.2-1.3,0.3-2.1,0.3c-0.7,0-1.5-0.1-2.1-0.4c-0.3-0.1-0.7-0.3-1-0.4c0,0,0,0-0.1,0c-31.9-15.2-52.3-47.4-52.3-82.9v-31
		c0-1.7,1.1-3.2,2.7-3.7l50.4-15.8c1.5-0.5,3.1-0.5,4.6,0l50.4,15.8C310.3,246.3,311.4,247.7,311.4,249.4L311.4,249.4z"/>
	<path class="st4" d="M301.2,255.3v28.2c0,27.2-14.7,52-38,65.2c-0.7,0.4-1.4,0.8-2.1,1.2c-0.6,0.3-1.3,0.7-2,1c0,0-0.1,0-0.1,0
		c-0.1,0.1-0.3,0.1-0.4,0.2c-0.2,0.1-0.4,0.2-0.6,0.2c0,0,0,0-0.1,0c-0.6,0.2-1.3,0.3-2.1,0.3c-0.8,0-1.4-0.1-2.1-0.4
		c-0.2-0.1-0.4-0.2-0.6-0.3c-0.1,0-0.1-0.1-0.2-0.1s-0.1-0.1-0.2-0.1c0,0,0,0-0.1,0c-0.7-0.3-1.3-0.7-2-1c-0.7-0.4-1.4-0.8-2.1-1.2
		c-23.3-13.2-37.9-38-37.9-65.2v-28.2c0-1,0.6-1.8,1.5-2.1l42.4-13.2c0.9-0.3,1.8-0.3,2.6,0l42.4,13.2
		C300.6,253.4,301.2,254.3,301.2,255.3L301.2,255.3z"/>
	<path class="st8" d="M251.8,317.4c-2.2,0-4.4-0.9-5.9-2.5l-16.4-16.4c-3.3-3.3-3.3-8.6,0-11.9s8.6-3.3,11.9,0l10.5,10.5l21.2-21.2
		c3.3-3.3,8.6-3.3,11.9,0c3.3,3.3,3.3,8.6,0,11.9l-27.1,27.1C256.1,316.5,254,317.4,251.8,317.4L251.8,317.4z"/>
	<path class="st3" d="M251.8,313.4c-2.2,0-4.4-0.9-5.9-2.5l-16.4-16.4c-3.3-3.3-3.3-8.6,0-11.9s8.6-3.3,11.9,0l10.5,10.5l21.2-21.2
		c3.3-3.3,8.6-3.3,11.9,0c3.3,3.3,3.3,8.6,0,11.9l-27.1,27.1C256.1,312.5,254,313.4,251.8,313.4L251.8,313.4z"/>
	<path class="st2" d="M284.8,272.5l-27.1,27.1c-1.6,1.6-3.7,2.5-5.9,2.5c-2.2,0-4.4-0.9-5.9-2.5l-16.4-16.4
		c-0.1-0.1-0.1-0.2-0.2-0.3c-3,3.3-3,8.4,0.2,11.6l16.4,16.4c1.6,1.6,3.7,2.5,5.9,2.5c2.2,0,4.4-0.9,5.9-2.5l27.1-27.1
		c3.2-3.2,3.2-8.3,0.2-11.6C285,272.3,284.9,272.4,284.8,272.5z"/>
</g>
</svg>
