<?xml version="1.0" encoding="utf-8"?>
<!-- Generator: Adobe Illustrator 22.0.0, SVG Export Plug-In . SVG Version: 6.00 Build 0)  -->
<svg version="1.1" id="Capa_1" xmlns="http://www.w3.org/2000/svg" xmlns:xlink="http://www.w3.org/1999/xlink" x="0px" y="0px"
	 viewBox="0 0 512 512" style="enable-background:new 0 0 512 512;" xml:space="preserve">
<style type="text/css">
	.st0{fill:#8390A3;}
	.st1{fill:#575656;}
	.st2{fill:#FFFFFF;}
	.st3{fill:#D1D3D4;}
	.st4{fill:#1CAEE4;}
	.st5{fill:#0084C2;}
	.st6{fill:#009FE8;}
	.st7{fill:#E6E7E8;}
	.st8{fill:#E7D7F7;}
	.st9{fill:#CAABEF;}
</style>
<g>
	<circle class="st0" cx="251.3" cy="267.3" r="240"/>
	<path class="st1" d="M351.8,234.9c-0.4,0-0.7,0-1,0c-5.2-26.9-28.8-47.1-57.1-47.1c-8.6,0-16.8,1.9-24.1,5.2
		c-9.5-19.1-29.3-32.3-52.1-32.3c-32.1,0-58.2,26.1-58.2,58.2c0,5.5,0.8,10.9,2.2,16c-0.4,0-0.9,0-1.3,0
		c-32.1,0-58.2,26.1-58.2,58.2c0,32.1,26.1,58.2,58.2,58.2h37.9C207.5,374,229.9,390,256,390s48.5-16,57.9-38.6h37.9
		c32.1,0,58.2-26.1,58.2-58.2C410,261,384,234.9,351.8,234.9z"/>
	<path class="st2" d="M351.8,220.9c-0.4,0-0.7,0-1,0c-5.2-26.9-28.8-47.1-57.1-47.1c-8.6,0-16.8,1.9-24.1,5.2
		c-9.5-19.1-29.3-32.3-52.1-32.3c-32.1,0-58.2,26.1-58.2,58.2c0,5.5,0.8,10.9,2.2,16c-0.4,0-0.9,0-1.3,0
		c-32.1,0-58.2,26.1-58.2,58.2c0,32.1,26.1,58.2,58.2,58.2h191.7c32.1,0,58.2-26.1,58.2-58.2C410,247,384,220.9,351.8,220.9
		L351.8,220.9z"/>
	<path class="st3" d="M351.8,302H160.2c-26,0-48-17-55.5-40.5c-1.8,5.6-2.7,11.5-2.7,17.7c0,32.1,26.1,58.2,58.2,58.2h191.7
		c32.1,0,58.2-26.1,58.2-58.2c0-6.2-1-12.1-2.7-17.7C399.8,284.9,377.8,302,351.8,302L351.8,302z"/>
	<g>
		<path class="st4" d="M247.8,240.2h16.5v12.1h-16.5V240.2z"/>
		<path class="st4" d="M222.8,261.3l-19.3,19.3l-6.4-6.4c-2-2-2-5.1,0-7.1l12.2-12.2c2-2,5.1-2,7.1,0L222.8,261.3z"/>
		<path class="st4" d="M289.1,261.3l19.3,19.3l6.4-6.4c2-2,2-5.1,0-7.1l-12.2-12.2c-2-2-5.1-2-7.1,0L289.1,261.3z"/>
	</g>
	<path class="st5" d="M312.2,276.8c-5-7.7-11.5-14.3-19.2-19.4l-3.9,3.9l19.3,19.3L312.2,276.8z"/>
	<path class="st5" d="M199.8,276.9l3.7,3.7l19.3-19.3l-3.9-3.9C211.3,262.5,204.8,269.2,199.8,276.9z"/>
	<circle class="st6" cx="256" cy="313.2" r="62.7"/>
	<ellipse class="st5" cx="255.9" cy="313.2" rx="52.9" ry="52.9"/>
	<ellipse class="st2" cx="256.1" cy="313.2" rx="46.7" ry="46.7"/>
	<path class="st5" d="M247.8,240.2h16.5v5.1h-16.5V240.2z"/>
	<path class="st6" d="M269.4,242.4h-26.8c-4.3,0-7.8-3.5-7.8-7.8v-6.3c0-4.3,3.5-7.8,7.8-7.8h26.8c4.3,0,7.8,3.5,7.8,7.8v6.3
		C277.2,238.9,273.7,242.4,269.4,242.4z"/>
	<path class="st5" d="M263.2,242.4h-14.3c-3.4,0-6.2-2.8-6.2-6.2v-9.6c0-3.4,2.8-6.2,6.2-6.2h14.3c3.4,0,6.2,2.8,6.2,6.2v9.6
		C269.3,239.7,266.6,242.4,263.2,242.4z"/>
	<path class="st6" d="M257.4,242.4h-2.8c-2.1,0-3.9-1.7-3.9-3.9v-14.1c0-2.1,1.7-3.9,3.9-3.9h2.8c2.1,0,3.9,1.7,3.9,3.9v14.1
		C261.3,240.7,259.5,242.4,257.4,242.4z"/>
	<path class="st5" d="M269.4,236.6h-26.8c-4.3,0-7.8-3.5-7.8-7.8v5.9c0,4.3,3.5,7.8,7.8,7.8h26.8c4.3,0,7.8-3.5,7.8-7.8v-5.9
		C277.2,233.1,273.7,236.6,269.4,236.6z"/>
	<g>
		<path class="st7" d="M256,287.2c-1.8,0-3.2-1.4-3.2-3.2v-10.3c0-1.8,1.4-3.2,3.2-3.2s3.2,1.4,3.2,3.2V284
			C259.2,285.8,257.8,287.2,256,287.2z"/>
		<path class="st7" d="M256,357.1c-1.8,0-3.2-1.4-3.2-3.2v-10.3c0-1.8,1.4-3.2,3.2-3.2s3.2,1.4,3.2,3.2v10.3
			C259.2,355.6,257.8,357.1,256,357.1z"/>
		<path class="st7" d="M296.1,317h-10.3c-1.8,0-3.2-1.4-3.2-3.2s1.4-3.2,3.2-3.2h10.3c1.8,0,3.2,1.4,3.2,3.2
			C299.3,315.6,297.8,317,296.1,317z"/>
		<path class="st7" d="M226.2,317h-10.3c-1.8,0-3.2-1.4-3.2-3.2s1.4-3.2,3.2-3.2h10.3c1.8,0,3.2,1.4,3.2,3.2S228,317,226.2,317z"/>
		<path class="st7" d="M256,325.5c-1.6,0-3.3-0.6-4.6-1.9c-2.5-2.5-2.5-6.6,0-9.1l22.5-22.5c2.5-2.5,6.6-2.5,9.1,0s2.5,6.6,0,9.1
			l-22.5,22.5C259.3,324.9,257.6,325.5,256,325.5z"/>
	</g>
	<path class="st8" d="M256,319.6c-1.6,0-3.3-0.6-4.6-1.9c-2.5-2.5-2.5-6.6,0-9.1l22.5-22.5c2.5-2.5,6.6-2.5,9.1,0s2.5,6.6,0,9.1
		l-22.5,22.5C259.3,319,257.6,319.6,256,319.6L256,319.6z"/>
	<path class="st9" d="M283,286.2c-0.8-0.8-1.8-1.3-2.8-1.6c0.6,2.2,0.1,4.6-1.6,6.3l-22.5,22.5c-1.3,1.3-2.9,1.9-4.6,1.9
		c-0.6,0-1.2-0.1-1.8-0.3c0.3,1,0.8,2,1.6,2.8c1.3,1.3,2.9,1.9,4.6,1.9s3.3-0.6,4.5-1.9l22.5-22.5
		C285.5,292.8,285.5,288.7,283,286.2L283,286.2z"/>
	<circle class="st3" cx="256" cy="316.1" r="11.7"/>
	<path class="st6" d="M267.7,313.2c0,6.4-5.2,11.7-11.7,11.7s-11.7-5.2-11.7-11.7s5.2-11.7,11.7-11.7
		C262.4,301.5,267.7,306.8,267.7,313.2z"/>
	<path class="st5" d="M256,315c-4.7,0-8.7-2.8-10.5-6.7c-0.7,1.5-1.1,3.2-1.1,4.9c0,6.4,5.2,11.7,11.7,11.7
		c6.4,0,11.7-5.2,11.7-11.7c0-1.8-0.4-3.4-1.1-4.9C264.7,312.2,260.7,315,256,315z"/>
</g>
</svg>
